<svg width="18" height="15" viewBox="0 0 18 15" fill="none" xmlns="http://www.w3.org/2000/svg">
<g id="Component 1">
<path id="Vector" d="M15.0364 0H2.82074C1.26121 0 0 1.26697 0 2.82805V9.53243C0 11.0935 1.26121 12.3567 2.82074 12.3567H7.03109L8.466 14.6908C8.466 14.6908 8.48111 14.721 8.51131 14.7587C8.59439 14.902 8.74921 15 8.93046 15C9.11171 15 9.26276 14.902 9.34583 14.7624C9.38359 14.721 9.39492 14.6908 9.39492 14.6908L10.8298 12.3567H15.0364C16.5922 12.3567 17.8571 11.0935 17.8571 9.53243V2.82805C17.8571 1.26697 16.5922 0 15.0364 0Z" fill="white"/>
<path id="Vector_2" d="M3.96857 4.91327C3.96857 4.91327 3.48145 4.91327 3.03587 5.34313V3.61237H1.94458V8.15988H3.0472V7.80543C3.0472 7.80543 3.30775 8.27677 3.96479 8.27677C3.96479 8.27677 5.50544 8.22021 5.50544 6.57617C5.50544 6.57617 5.44879 4.91327 3.96479 4.91327M3.72312 7.31146C3.33418 7.31146 3.02077 6.99849 3.02077 6.6101C3.02077 6.22172 3.33418 5.90875 3.72312 5.90875C4.11206 5.90875 4.42547 6.22172 4.42547 6.6101C4.42547 6.99849 4.11206 7.31146 3.72312 7.31146Z" fill="#192032"/>
<path id="Vector_3" d="M5.8606 3.50684V4.56264C5.8606 4.56264 6.35904 4.54002 6.35904 5.46762V8.15993H7.41257V5.21875C7.41257 5.21875 7.45788 3.50684 5.8606 3.50684Z" fill="#192032"/>
<path id="Vector_4" d="M9.98789 4.92834C9.98789 4.92834 8.17914 4.92834 8.17914 6.61009C8.17914 6.61009 8.1225 8.27299 9.98789 8.27299C9.98789 8.27299 11.8344 8.27299 11.8344 6.61009C11.8344 6.61009 11.8948 4.92834 9.98789 4.92834ZM9.98789 7.31145C9.59895 7.31145 9.28554 6.99848 9.28554 6.61009C9.28554 6.22171 9.59895 5.90874 9.98789 5.90874C10.3768 5.90874 10.6902 6.22171 10.6902 6.61009C10.6902 6.99848 10.3768 7.31145 9.98789 7.31145Z" fill="#192032"/>
<path id="Vector_5" d="M14.8514 5.03398V5.34318C14.8514 5.34318 14.538 4.9284 13.9338 4.9284C13.9338 4.9284 12.3894 4.86052 12.3894 6.59883C12.3894 6.59883 12.3743 8.22025 13.8923 8.22025C13.8923 8.22025 14.5116 8.24288 14.8514 7.80547V8.05811C14.8514 8.05811 14.9307 8.85751 14.1566 8.85751H13.8923V9.82281H14.319C14.319 9.82281 15.9163 9.84167 15.9163 8.11844V5.03398H14.8514ZM14.1982 7.3115C13.8092 7.3115 13.4958 6.99853 13.4958 6.61015C13.4958 6.22176 13.8092 5.90879 14.1982 5.90879C14.5871 5.90879 14.9005 6.22176 14.9005 6.61015C14.9005 6.99853 14.5871 7.3115 14.1982 7.3115Z" fill="#192032"/>
</g>
</svg>
