<svg width="24" height="24" viewBox="0 0 24 24" fill="none" xmlns="http://www.w3.org/2000/svg">
<g id="&#237;&#151;&#164;&#235;&#141;&#148;&#236;&#149;&#132;&#236;&#157;&#180;&#236;&#189;&#152;">
<path id="Icon" d="M9.1925 13.6325L14.315 16.6175M14.3075 8.3825L9.1925 11.3675M18.5 7.25C18.5 8.49264 17.4926 9.5 16.25 9.5C15.0074 9.5 14 8.49264 14 7.25C14 6.00736 15.0074 5 16.25 5C17.4926 5 18.5 6.00736 18.5 7.25ZM9.5 12.5C9.5 13.7426 8.49264 14.75 7.25 14.75C6.00736 14.75 5 13.7426 5 12.5C5 11.2574 6.00736 10.25 7.25 10.25C8.49264 10.25 9.5 11.2574 9.5 12.5ZM18.5 17.75C18.5 18.9926 17.4926 20 16.25 20C15.0074 20 14 18.9926 14 17.75C14 16.5074 15.0074 15.5 16.25 15.5C17.4926 15.5 18.5 16.5074 18.5 17.75Z" stroke="#111111" stroke-width="2" stroke-linecap="round" stroke-linejoin="round"/>
</g>
</svg>
