<svg width="18" height="18" viewBox="0 0 18 18" fill="none" xmlns="http://www.w3.org/2000/svg">
<g id="Group">
<path id="Vector" d="M9.11511 14.684C8.57879 14.6877 8.04621 14.6633 7.51552 14.5883C7.43488 14.5771 7.37112 14.5921 7.30361 14.6408C6.24972 15.3797 5.1977 16.1204 4.11005 16.8105C3.97878 16.8949 3.84002 16.968 3.70312 17.0468C3.65437 17.0749 3.60373 17.0918 3.54748 17.0993C3.37308 17.1237 3.27181 17.0205 3.30932 16.848C3.37308 16.5442 3.46496 16.2479 3.54935 15.9497C3.76313 15.1978 3.97878 14.4458 4.19444 13.6938C4.21319 13.6282 4.20757 13.5963 4.13818 13.5625C3.11242 13.0431 2.20667 12.3661 1.46969 11.4791C0.740219 10.6015 0.247026 9.61139 0.0707524 8.47873C-0.1299 7.18293 0.0988812 5.95839 0.723341 4.80886C1.33467 3.6837 2.21792 2.81171 3.28306 2.11787C4.42134 1.37901 5.67027 0.917702 6.99982 0.677669C7.99183 0.49952 8.99134 0.454514 9.9946 0.546401C11.883 0.717049 13.6251 1.30025 15.1609 2.43291C16.1811 3.18489 17.0006 4.11126 17.4994 5.28705C18.2982 7.16793 18.1313 8.9888 17.0681 10.7234C16.3873 11.8354 15.431 12.6699 14.3096 13.3188C13.2388 13.9395 12.0855 14.3314 10.8647 14.5358C10.2853 14.6333 9.70019 14.684 9.11136 14.6877L9.11511 14.684Z" fill="white"/>
<path id="Vector_2" d="M13.2933 7.10404C13.3121 7.07591 13.329 7.04591 13.3533 7.02153C13.7959 6.57709 14.2403 6.13266 14.6848 5.6901C14.8517 5.5232 15.0561 5.49882 15.2549 5.61884C15.4536 5.73885 15.553 5.97326 15.493 6.17954C15.4705 6.2583 15.4218 6.32018 15.3636 6.37832C14.9998 6.74024 14.6379 7.10592 14.2722 7.46596C14.2216 7.5166 14.2235 7.54472 14.2647 7.59911C14.6698 8.13168 15.073 8.668 15.4761 9.20245C15.6524 9.43686 15.628 9.73502 15.4218 9.9188C15.1911 10.1232 14.8498 10.0913 14.6566 9.83816C14.2947 9.36372 13.9366 8.88741 13.5784 8.41109C13.569 8.39797 13.5615 8.38484 13.5502 8.37359C13.5071 8.33233 13.4959 8.25357 13.4302 8.24982C13.3796 8.24607 13.2615 8.43172 13.2615 8.49173C13.2615 8.84803 13.2633 9.2062 13.2596 9.5625C13.2558 9.81191 13.0814 10.0088 12.832 10.0576C12.607 10.1007 12.3707 9.97693 12.2732 9.76128C12.2413 9.69002 12.2263 9.61688 12.2263 9.53812C12.2263 8.36046 12.2263 7.1828 12.2263 6.00326C12.2263 5.70697 12.4551 5.47819 12.742 5.47632C13.0289 5.47632 13.2577 5.70322 13.2615 5.99951C13.2652 6.33706 13.2615 6.67648 13.2615 7.01403V7.08529C13.2727 7.09279 13.2821 7.10029 13.2933 7.10591V7.10404Z" fill="#192032"/>
<path id="Vector_3" d="M7.09366 9.15939C6.85363 9.15939 6.61359 9.15939 6.37356 9.15939C6.31918 9.15939 6.29293 9.1744 6.27417 9.2269C6.21229 9.39755 6.14665 9.56445 6.08102 9.7351C5.98163 9.99576 5.79973 10.1008 5.51844 10.0595C5.15464 10.0051 5.03088 9.82136 5.10776 9.44818C5.15652 9.21565 5.25778 9 5.34029 8.78059C5.69097 7.85422 6.04164 6.92784 6.39419 6.00146C6.49733 5.72955 6.6886 5.54765 6.97552 5.48952C7.30181 5.42388 7.64498 5.63391 7.77625 5.97333C7.97128 6.47965 8.16255 6.98785 8.3557 7.49604C8.57323 8.06612 8.79076 8.6362 9.00642 9.20815C9.06643 9.36755 9.10393 9.53069 9.08893 9.70322C9.0758 9.85136 9.00454 9.95638 8.86202 10.0089C8.75701 10.0464 8.65012 10.0708 8.5376 10.0633C8.33133 10.0501 8.17568 9.97138 8.10817 9.75572C8.05379 9.58133 7.9769 9.41255 7.91502 9.23815C7.89439 9.18002 7.87001 9.15752 7.80438 9.15939C7.5681 9.16502 7.32994 9.16127 7.09366 9.16127V9.15939Z" fill="#192032"/>
<path id="Vector_4" d="M3.50069 8.06463C3.50069 7.57331 3.50069 7.08012 3.50069 6.5888C3.50069 6.51192 3.48756 6.48191 3.4013 6.48566C3.17064 6.49316 2.93999 6.48941 2.70933 6.48754C2.40742 6.48754 2.18426 6.27376 2.18238 5.98872C2.18051 5.69806 2.40179 5.47303 2.70558 5.47303C3.58132 5.47115 4.45707 5.47115 5.33469 5.47303C5.61035 5.47303 5.82788 5.66618 5.85601 5.92309C5.88414 6.17625 5.72474 6.40503 5.47721 6.47254C5.42658 6.48754 5.37407 6.48754 5.32156 6.48754C5.09091 6.48754 4.86025 6.49129 4.62959 6.48754C4.55458 6.48754 4.53958 6.51192 4.53958 6.5813C4.54146 7.56206 4.53958 8.54282 4.53958 9.52358C4.53958 9.78611 4.41019 9.97364 4.18328 10.0449C3.83824 10.1537 3.50256 9.91363 3.50069 9.5517C3.49694 9.05664 3.50069 8.56157 3.50069 8.0665V8.06463Z" fill="#192032"/>
<path id="Vector_5" d="M9.36442 7.74703C9.36442 7.16195 9.36442 6.57875 9.36442 5.99367C9.36442 5.71988 9.56133 5.50985 9.84074 5.47422C10.0901 5.44234 10.3377 5.61299 10.4052 5.86428C10.4221 5.92804 10.4202 5.99179 10.4202 6.05555C10.4202 7.01756 10.4202 7.97956 10.4202 8.94345C10.4202 9.02596 10.4408 9.04658 10.5215 9.04471C10.859 9.03908 11.1984 9.03908 11.536 9.04471C11.8004 9.04846 12.0104 9.24724 12.0217 9.49102C12.0329 9.7498 11.8304 9.98421 11.5678 9.98796C10.9846 9.99546 10.3996 9.99546 9.81449 9.98796C9.56133 9.98421 9.36255 9.76668 9.36255 9.50977C9.36255 8.92282 9.36255 8.33586 9.36255 7.74703H9.36442Z" fill="#192032"/>
<path id="Vector_6" d="M7.09174 6.76843C7.26801 7.271 7.43678 7.75107 7.60931 8.24051H6.95484C6.85358 8.24051 6.75232 8.23676 6.65105 8.24051C6.58542 8.24426 6.57604 8.22738 6.59667 8.1655C6.72981 7.7942 6.86108 7.41915 6.99235 7.04597C7.02235 6.96158 7.05048 6.87907 7.08986 6.76843H7.09174Z" fill="white"/>
</g>
</svg>
