<svg width="30" height="30" viewBox="0 0 30 30" fill="none" xmlns="http://www.w3.org/2000/svg">
<g id="SNS" clip-path="url(#clip0_739_1636)">
<path id="Vector" d="M15 30C23.2843 30 30 23.2843 30 15C30 6.71573 23.2843 0 15 0C6.71573 0 0 6.71573 0 15C0 23.2843 6.71573 30 15 30Z" fill="#192032"/>
<path id="Vector_2" d="M18.7597 15.8734L19.1758 13.1794H16.571V11.4312C16.571 10.6939 16.9341 9.97584 18.1016 9.97584H19.2857V7.68227C19.2857 7.68227 18.2115 7.5 17.1832 7.5C15.0376 7.5 13.635 8.7897 13.635 11.1261V13.1794H11.25V15.8734H13.635V22.3868C14.1136 22.4613 14.6034 22.5 15.103 22.5C15.6025 22.5 16.0923 22.4613 16.571 22.3868V15.8734H18.7597Z" fill="white"/>
</g>
<defs>
<clipPath id="clip0_739_1636">
<rect width="30" height="30" fill="white"/>
</clipPath>
</defs>
</svg>
