<svg width="30" height="30" viewBox="0 0 30 30" fill="none" xmlns="http://www.w3.org/2000/svg">
<g id="SNS" clip-path="url(#clip0_739_1633)">
<path id="Vector" d="M15 30C23.2843 30 30 23.2843 30 15C30 6.71573 23.2843 0 15 0C6.71573 0 0 6.71573 0 15C0 23.2843 6.71573 30 15 30Z" fill="#192032"/>
<path id="Vector_2" d="M22.9053 10.804C22.7165 10.0945 22.1573 9.53533 21.446 9.34467C20.159 9 15 9 15 9C15 9 9.841 9 8.554 9.34467C7.8445 9.53533 7.28533 10.0927 7.09467 10.804C6.75 12.091 6.75 14.775 6.75 14.775C6.75 14.775 6.75 17.459 7.09467 18.746C7.2835 19.4555 7.84267 20.0147 8.554 20.2053C9.841 20.55 15 20.55 15 20.55C15 20.55 20.159 20.55 21.446 20.2053C22.1555 20.0147 22.7147 19.4573 22.9053 18.746C23.25 17.459 23.25 14.775 23.25 14.775C23.25 14.775 23.25 12.091 22.9053 10.804ZM13.35 17.25V12.3L17.6363 14.775L13.35 17.25Z" fill="white"/>
</g>
<defs>
<clipPath id="clip0_739_1633">
<rect width="30" height="30" fill="white"/>
</clipPath>
</defs>
</svg>
