<svg width="24" height="25" viewBox="0 0 24 25" fill="none" xmlns="http://www.w3.org/2000/svg">
<path fill-rule="evenodd" clip-rule="evenodd" d="M8.99499 5.23829C9.01884 5.23829 9.04301 5.23829 9.06749 5.23829H9.58678C10.9081 5.23829 12.1161 5.98484 12.707 7.16669C12.9598 7.67227 13.4765 7.99164 14.0418 7.99164H14.2729L14.3243 7.99164C14.956 7.9916 15.3293 7.99158 15.6505 8.03811C17.6235 8.32387 19.1732 9.87365 19.459 11.8466C19.5055 12.1678 19.5055 12.5411 19.5055 13.1728L19.5055 13.2242V13.9983C19.5055 14.034 19.5055 14.0693 19.5055 14.1041C19.5056 15.405 19.5057 16.1748 19.31 16.8169C18.873 18.2506 17.751 19.3726 16.3174 19.8095C15.6753 20.0052 14.9054 20.0052 13.6046 20.005C13.5697 20.005 13.5344 20.005 13.4988 20.005H11.6388H11.6161C10.5152 20.005 9.65823 20.005 8.97084 19.9489C8.27291 19.8918 7.70585 19.7744 7.19579 19.5145C6.34906 19.0831 5.66065 18.3947 5.22922 17.548C4.96933 17.0379 4.85193 16.4709 4.79491 15.7729C4.73875 15.0855 4.73875 14.2286 4.73875 13.1276V13.105V9.56703C4.73875 9.54255 4.73875 9.51838 4.73875 9.49453C4.73865 8.79353 4.73859 8.35783 4.82081 7.98487C5.11427 6.65357 6.15403 5.61381 7.48533 5.32035C7.85828 5.23814 8.29399 5.23819 8.99499 5.23829ZM9.06749 6.23829C8.27064 6.23829 7.95307 6.24125 7.70059 6.2969C6.74966 6.50652 6.00698 7.24921 5.79736 8.20013C5.74171 8.45262 5.73875 8.77018 5.73875 9.56703V13.105C5.73875 14.2334 5.73914 15.0496 5.79159 15.6915C5.84356 16.3276 5.94414 16.7484 6.12023 17.094C6.45579 17.7525 6.99122 18.288 7.64978 18.6235C7.99537 18.7996 8.41619 18.9002 9.05228 18.9522C9.6942 19.0046 10.5104 19.005 11.6388 19.005H13.4988C14.9371 19.005 15.545 18.9995 16.0259 18.853C17.1409 18.5131 18.0136 17.6405 18.3534 16.5254C18.5 16.0445 18.5055 15.4367 18.5055 13.9983V13.2242C18.5055 12.5262 18.5042 12.2305 18.4693 11.9899C18.2471 10.4554 17.0417 9.25004 15.5072 9.02778C15.2666 8.99294 14.9709 8.99164 14.2729 8.99164H14.0418C13.0978 8.99164 12.2347 8.45827 11.8126 7.61391C11.391 6.77084 10.5294 6.23829 9.58678 6.23829H9.06749Z" fill="#6D6D73"/>
<path d="M11.987 11.4189V16.4659M11.987 16.4659L13.6732 14.7797M11.987 16.4659L10.3008 14.7797" stroke="#6D6D73" stroke-linecap="round" stroke-linejoin="round"/>
</svg>
