<svg width="17" height="17" viewBox="0 0 17 17" fill="none" xmlns="http://www.w3.org/2000/svg">
<g id="_Layer_" clip-path="url(#clip0_809_312)">
<path id="Vector" d="M11.5751 0.587952H4.93849C2.43548 0.587952 0.408691 2.61474 0.408691 5.11775V11.7543C0.408691 14.2573 2.43548 16.2841 4.93849 16.2841H11.5751C14.0781 16.2841 16.1049 14.2573 16.1049 11.7543V5.11775C16.1049 2.61474 14.0781 0.587952 11.5751 0.587952ZM14.661 11.8686C14.661 13.5297 13.3123 14.8745 11.6551 14.8745H4.86229C3.20124 14.8745 1.8564 13.5259 1.8564 11.8686V5.07965C1.8564 3.4186 3.20505 2.07376 4.86229 2.07376H11.6551C13.3161 2.07376 14.661 3.4186 14.661 5.07965V11.8686Z" fill="white"/>
<path id="Vector_2" d="M8.25695 4.40137C6.0092 4.40137 4.18433 6.22624 4.18433 8.47399C4.18433 10.7217 6.00539 12.5466 8.25695 12.5466C10.5085 12.5466 12.3296 10.7217 12.3296 8.47399C12.3296 6.22624 10.5047 4.40137 8.25695 4.40137ZM8.25695 11.1141C6.80163 11.1141 5.61679 9.93313 5.61679 8.47399C5.61679 7.01486 6.79782 5.83383 8.25695 5.83383C9.71609 5.83383 10.8971 7.01486 10.8971 8.47399C10.8971 9.93313 9.71609 11.1141 8.25695 11.1141Z" fill="white"/>
<path id="Vector_3" d="M12.4667 3.29663C11.9448 3.29663 11.5181 3.72332 11.5181 4.24526C11.5181 4.76719 11.9448 5.19389 12.4667 5.19389C12.9886 5.19389 13.4153 4.771 13.4153 4.24526C13.4153 3.71951 12.9924 3.29663 12.4667 3.29663Z" fill="white"/>
</g>
<defs>
<clipPath id="clip0_809_312">
<rect width="15.75" height="15.75" fill="white" transform="translate(0.5 0.5)"/>
</clipPath>
</defs>
</svg>
