<svg width="50" height="50" viewBox="0 0 50 50" fill="none" xmlns="http://www.w3.org/2000/svg">
<g id="ic_01my_qm_32_sld_consult">
<g id="icon">
<path id="Vector" d="M38.7651 22.7462C42.4311 23.2682 45.4034 26.2026 45.9826 29.8628C46.3454 32.1416 45.7981 34.2804 44.6588 35.9927C44.5379 36.1773 44.5124 36.4128 44.6015 36.6165L45.6771 38.9399C45.8744 39.36 45.5626 39.8438 45.0979 39.8438H37.7468C33.1833 39.8438 29.2245 36.3873 28.9253 31.8297C28.5689 26.4 33.2597 21.9633 38.7651 22.7462Z" fill="#B5B5BC"/>
<path id="Vector_2" d="M19.2298 7.21933C11.5644 8.31071 5.34961 14.4464 4.13858 22.0994C3.38003 26.8642 4.52451 31.3362 6.90664 34.9165C7.15949 35.3025 7.21272 35.7949 7.02641 36.2208L4.77736 41.0788C4.36482 41.9572 5.01691 42.9688 5.98839 42.9688H21.3591C30.9009 42.9688 39.1784 35.7417 39.8039 26.212C40.5491 14.859 30.7412 5.58226 19.2298 7.21933Z" fill="#D9D9E0"/>
<g id="Group 827918">
<circle id="Vector_3" cx="14.4531" cy="24.6094" r="1.95312" fill="white"/>
<circle id="Vector_4" cx="22.2656" cy="24.6094" r="1.95312" fill="white"/>
<circle id="Vector_5" cx="30.0781" cy="24.6094" r="1.95312" fill="white"/>
</g>
</g>
</g>
</svg>
