<svg width="21" height="20" viewBox="0 0 21 20" fill="none" xmlns="http://www.w3.org/2000/svg">
<path d="M9.49191 2.5C7.90978 2.50016 6.36326 2.96946 5.04784 3.84857C3.73242 4.72767 2.70721 5.97709 2.10186 7.43884C1.49652 8.90059 1.33822 10.509 1.64698 12.0607C1.95574 13.6125 2.71766 15.0378 3.83645 16.1565C4.95525 17.2751 6.38065 18.0369 7.9324 18.3455C9.48414 18.6541 11.0926 18.4957 12.5542 17.8902C14.0159 17.2847 15.2652 16.2594 16.1442 14.9439C17.0232 13.6283 17.4923 12.0817 17.4923 10.4996C17.4923 9.44901 17.2854 8.4087 16.8833 7.4381C16.4813 6.46749 15.892 5.58558 15.149 4.84274C14.4061 4.0999 13.5242 3.51067 12.5535 3.1087C11.5829 2.70673 10.5425 2.49989 9.49191 2.5ZM9.49191 14.5002C8.70086 14.5 7.92766 14.2653 7.27 13.8257C6.61234 13.3861 6.09977 12.7614 5.79716 12.0305C5.49455 11.2996 5.41549 10.4954 5.56991 9.71958C5.72434 8.94375 6.10534 8.23113 6.66475 7.67183C7.22416 7.11253 7.93686 6.73167 8.71272 6.5774C9.48858 6.42313 10.2928 6.50239 11.0236 6.80515C11.7544 7.1079 12.379 7.62057 12.8185 8.27832C13.258 8.93606 13.4926 9.70935 13.4926 10.5004C13.4929 11.0259 13.3896 11.5464 13.1887 12.032C12.9878 12.5176 12.6931 12.9589 12.3216 13.3305C11.9501 13.7022 11.509 13.997 11.0234 14.1982C10.5379 14.3993 10.0174 14.5027 9.49191 14.5026V14.5002Z" fill="white"/>
<path style="mix-blend-mode:multiply" opacity="0.5" d="M13.3145 9.32177C13.6133 10.2932 13.5312 11.3419 13.0849 12.2549C12.6385 13.168 11.8614 13.877 10.9113 14.2379C9.96126 14.5988 8.90943 14.5846 7.96945 14.1981C7.02948 13.8116 6.27184 13.0819 5.85036 12.1571C4.59612 12.6173 3.33838 13.0686 2.07715 13.5111C2.85606 15.4569 4.36736 17.0195 6.28615 17.8629C8.20494 18.7063 10.378 18.7632 12.3383 18.0214C14.2986 17.2795 15.8896 15.7982 16.7692 13.8957C17.6489 11.9933 17.7471 9.82167 17.0426 7.84766C15.8007 8.34333 14.558 8.8347 13.3145 9.32177Z" fill="url(#paint0_linear_1421_12256)"/>
<path d="M14.796 4.69043C14.796 4.69043 13.0936 8.8999 13.3218 9.25149C14.8451 11.5957 15.6838 15.3213 16.0072 17.0277L19.5094 16.1108C18.1482 6.90806 14.796 4.69043 14.796 4.69043Z" fill="white"/>
<path d="M15.7404 3.82617C15.7057 4.00923 15.6654 4.25438 15.6211 4.46324C16.8349 5.92035 17.7499 7.60228 18.3137 9.41299C18.8067 7.90549 19.203 6.36803 19.4999 4.80999L15.7404 3.82617Z" fill="white"/>
<defs>
<linearGradient id="paint0_linear_1421_12256" x1="10.1013" y1="13.9847" x2="15.1959" y2="7.02969" gradientUnits="userSpaceOnUse">
<stop stop-color="white"/>
<stop offset="0.103" stop-color="#DBECF8"/>
<stop offset="0.266" stop-color="#A9D3EE"/>
<stop offset="0.428" stop-color="#80BDE7"/>
<stop offset="0.585" stop-color="#5FADE0"/>
<stop offset="0.736" stop-color="#48A1DC"/>
<stop offset="0.877" stop-color="#3A9AD9"/>
<stop offset="1" stop-color="#3698D9"/>
</linearGradient>
</defs>
</svg>
