<svg width="116" height="21" viewBox="0 0 116 21" fill="none" xmlns="http://www.w3.org/2000/svg">
<g id="&#235;&#161;&#156;&#234;&#179;&#160;" clip-path="url(#clip0_1014_1000)">
<g id="Group">
<path id="Vector" d="M9.99832 0.5C4.47841 0.5 0 4.97841 0 10.4983C0 16.0182 4.47841 20.4966 9.99832 20.4966C15.5182 20.4966 19.9966 16.0182 19.9966 10.4983C19.9966 4.97841 15.5216 0.5 9.99832 0.5ZM10.2066 18.6656C9.01058 18.8336 7.06199 18.5312 5.745 17.6947C4.58928 16.9656 3.90055 16.0518 3.45372 15.1246C2.99681 14.1771 2.78179 13.0281 3.26894 13.0853C3.4974 13.1121 3.69226 13.5422 4.13237 14.1032C4.43138 14.4862 4.71023 14.8088 4.91853 14.8558C5.0126 14.8759 5.08987 14.8323 5.15706 14.708C5.28137 14.4694 5.44935 14.0192 5.74836 13.653C5.99026 13.3742 6.28255 13.2432 6.45389 13.9252C6.53452 14.2645 6.60171 14.6173 6.63867 14.923C6.69242 15.3564 6.7193 15.6151 6.87049 15.6856C7.01495 15.7562 7.25685 15.6655 7.65328 15.5176C7.93549 15.4135 8.29834 15.2791 8.75861 15.1481C9.18192 15.0271 9.4507 15.091 9.17857 15.7461C9.0509 16.0552 8.91987 16.3172 8.46296 16.9757C8.38233 17.09 8.39913 17.2075 8.49656 17.305C8.6511 17.4562 8.99714 17.6409 9.38015 17.8089C9.68587 17.9399 10.0487 18.0575 10.2906 18.1247C10.6669 18.2322 10.593 18.6119 10.2133 18.6656H10.2066ZM15.3368 16.5155C14.9639 17.1202 14.1844 17.7753 13.237 18.2121C13.0926 18.2759 12.9414 18.2558 12.9011 18.1382C12.8675 18.0374 12.9481 17.9198 13.0422 17.8089C14.2752 16.2097 13.358 14.7416 11.3691 13.606C9.89753 12.7661 8.96355 12.2823 7.87838 11.644C4.70015 9.77264 4.08534 8.13985 3.96103 7.17563C3.64858 4.73988 5.66437 2.91223 7.73392 2.47211C7.79775 2.45868 7.96237 2.4318 8.01613 2.56954C8.06988 2.70729 7.94557 2.80808 7.87502 2.85176C6.94776 3.36242 6.03729 4.44423 6.13808 5.64698C6.19184 6.31891 6.48077 7.28649 8.3017 8.58332C9.4003 9.36612 10.7442 10.0078 13.4554 11.6339C16.3212 13.3507 15.9953 15.4471 15.3368 16.5121V16.5155ZM15.7836 7.37049C15.1285 8.17008 14.4767 7.87443 13.9728 6.74559C13.6603 6.04342 13.2471 5.87208 12.9548 6.05686C12.6356 6.25844 12.7633 6.73887 13.1194 7.29321C13.3513 7.65606 13.2471 8.08273 13.0052 8.33471C12.7499 8.60012 12.3366 8.70427 11.8831 8.60684C11.0768 8.42878 10.2839 7.35033 10.8618 4.99185C11.0969 4.04107 10.64 3.63455 10.3477 3.26835C10.2033 3.08693 10.1865 2.97606 10.2369 2.90215C10.294 2.82152 10.4284 2.8148 10.6635 2.86519C10.9726 2.92903 11.4329 3.09029 11.8092 3.1474C12.0578 3.18772 12.34 3.1978 12.6356 3.18436C13.4386 3.15412 14.0333 3.27843 14.638 3.57744C15.6661 4.08811 15.7736 4.96498 15.1991 4.89442C15.0008 4.87091 14.7455 4.71972 14.5338 4.61893C14.3927 4.55174 14.2718 4.52822 14.1811 4.59205C14.0971 4.65253 14.0601 4.78019 14.1206 4.90786C14.2483 5.17663 14.6817 5.31438 15.2663 5.479C16.2909 5.76121 16.3111 6.71199 15.7769 7.37049H15.7836Z" fill="#0046FF"/>
<path id="Vector_2" d="M10.21 18.6654C9.01394 18.8334 7.06534 18.531 5.74836 17.6945C4.59264 16.9654 3.90391 16.0516 3.45708 15.1243C3.00017 14.1769 2.78515 13.0279 3.2723 13.085C3.50075 13.1119 3.69561 13.5419 4.13573 14.103C4.43474 14.486 4.71359 14.8085 4.92189 14.8556C5.01596 14.8757 5.09323 14.832 5.16042 14.7077C5.28473 14.4692 5.45271 14.019 5.75172 13.6528C5.99362 13.3739 6.28591 13.2429 6.45725 13.9249C6.53788 14.2643 6.60507 14.617 6.64203 14.9227C6.69578 15.3561 6.72266 15.6148 6.87384 15.6854C7.01831 15.7559 7.2602 15.6652 7.65664 15.5174C7.93885 15.4133 8.3017 15.2789 8.76197 15.1478C9.18528 15.0269 9.45406 15.0907 9.18192 15.7459C9.05426 16.0549 8.92323 16.317 8.46632 16.9755C8.38569 17.0931 8.40249 17.2073 8.49992 17.3047C8.65446 17.4559 9.0005 17.6407 9.3835 17.8087C9.68923 17.9397 10.0521 18.0573 10.294 18.1245C10.6702 18.232 10.5963 18.6116 10.2167 18.6654H10.21ZM15.3402 16.5152C14.9672 17.12 14.1878 17.7751 13.2404 18.2118C13.0959 18.2757 12.9447 18.2555 12.9044 18.1379C12.8708 18.0371 12.9515 17.9196 13.0455 17.8087C14.2785 16.2095 13.3613 14.7413 11.3724 13.6058C9.90089 12.7658 8.96691 12.2821 7.88174 11.6437C4.70351 9.7724 4.08869 8.13961 3.96439 7.17539C3.65194 4.73964 5.66773 2.91199 7.73728 2.47188C7.80111 2.45844 7.96573 2.43156 8.01949 2.56931C8.07324 2.70706 7.94893 2.80785 7.87838 2.85152C6.95112 3.36219 6.04065 4.44399 6.14144 5.64675C6.19519 6.31868 6.48412 7.28626 8.30506 8.58308C9.40366 9.36588 10.7475 10.0076 13.4588 11.6336C16.3245 13.3504 15.9987 15.4468 15.3402 16.5119V16.5152ZM15.787 7.37025C15.1319 8.16985 14.4801 7.8742 13.9761 6.74536C13.6637 6.04319 13.2505 5.87185 12.9582 6.05663C12.639 6.25821 12.7667 6.73864 13.1228 7.29298C13.3546 7.65582 13.2505 8.0825 13.0086 8.33447C12.7532 8.59988 12.34 8.70403 11.8864 8.6066C11.0801 8.42854 10.2873 7.35009 10.8651 4.99162C11.1003 4.04084 10.6434 3.63432 10.3511 3.26812C10.2066 3.0867 10.1898 2.97583 10.2402 2.90192C10.2973 2.82128 10.4317 2.81456 10.6669 2.86496C10.976 2.92879 11.4363 3.09006 11.8125 3.14717C12.0611 3.18749 12.3434 3.19756 12.639 3.18413C13.442 3.15389 14.0366 3.2782 14.6414 3.57721C15.6694 4.08787 15.7769 4.96474 15.2024 4.89419C15.0042 4.87067 14.7489 4.71949 14.5372 4.6187C14.3961 4.5515 14.2752 4.52799 14.1844 4.59182C14.1005 4.65229 14.0635 4.77996 14.124 4.90763C14.2516 5.1764 14.685 5.31414 15.2696 5.47877C16.2943 5.76098 16.3145 6.71176 15.7803 7.37025H15.787Z" fill="white"/>
</g>
<g id="Group_2">
<path id="Vector_3" d="M27.8112 5.10279C27.8112 4.84409 27.7944 4.63579 27.7574 4.47453C27.7205 4.31327 27.6298 4.152 27.4853 3.98738C27.3912 3.87315 27.3677 3.769 27.408 3.67829C27.4484 3.58422 27.5256 3.54055 27.6398 3.54055H30.3209V5.60337C30.3209 6.11068 30.4351 6.56759 30.6602 6.97411C30.8886 7.38399 31.1809 7.74011 31.537 8.05256C31.8932 8.36165 32.2963 8.63042 32.7465 8.85887C33.1967 9.08733 33.6469 9.27883 34.1038 9.43338L33.4386 10.6899C33.3345 10.8747 33.0959 10.9284 32.7163 10.8444C32.34 10.7604 31.8159 10.5152 31.144 10.1019C30.761 9.86341 30.3981 9.598 30.0521 9.30235C29.706 9.0067 29.4137 8.69425 29.1752 8.36501C28.6074 9.17132 27.9053 9.85333 27.0653 10.411C26.8268 10.5656 26.5816 10.7134 26.3296 10.8545C26.0776 10.9923 25.8357 11.1065 25.6073 11.1938C25.3788 11.2812 25.1873 11.3316 25.026 11.3484C24.8648 11.3652 24.7606 11.3249 24.7069 11.2341L23.9946 9.88357C24.512 9.68871 24.9992 9.45353 25.4594 9.17804C25.9197 8.90591 26.3262 8.59682 26.6756 8.2575C27.0284 7.91817 27.3039 7.53853 27.5055 7.1253C27.707 6.71206 27.8078 6.25851 27.8078 5.76128V5.10951L27.8112 5.10279ZM38.0111 15.9377V17.688H29.1618C28.6981 17.688 28.295 17.6544 27.959 17.5872C27.6231 17.5201 27.3509 17.4092 27.146 17.2546C26.9377 17.1001 26.7865 16.8918 26.6891 16.6264C26.5916 16.361 26.5412 16.0351 26.5412 15.642V13.3944C26.5412 13.2399 26.5144 13.0988 26.464 12.9744C26.4136 12.8501 26.3296 12.7225 26.2154 12.5881C26.1213 12.4739 26.0978 12.3697 26.1381 12.279C26.1784 12.1849 26.2557 12.1379 26.3699 12.1379H29.0039V15.3161C29.0039 15.5547 29.0509 15.7159 29.1416 15.8033C29.2357 15.8906 29.4003 15.9343 29.6388 15.9343H38.0077L38.0111 15.9377ZM35.3133 12.9308V4.87097C35.3133 4.6022 35.2831 4.38718 35.2293 4.2192C35.1722 4.05457 35.0714 3.88995 34.9269 3.72197C34.8329 3.60774 34.8093 3.50695 34.8564 3.4196C34.9034 3.33225 34.984 3.28857 35.0983 3.28857H37.749V12.9308H35.3167H35.3133Z" fill="#0046FF"/>
<path id="Vector_4" d="M43.1413 4.43743C43.1413 4.16866 43.1245 3.95364 43.0875 3.79574C43.0506 3.63448 42.9598 3.4665 42.8154 3.29179C42.7112 3.17757 42.6844 3.07678 42.7314 2.98942C42.7784 2.90207 42.8591 2.8584 42.9699 2.8584H45.6207V4.59534H49.1382V6.29868H47.5122C47.7507 6.56745 47.9388 6.86982 48.0766 7.20579C48.2177 7.54175 48.2849 7.90459 48.2849 8.29767C48.2849 8.78482 48.1975 9.23502 48.0195 9.65497C47.8448 10.0749 47.5861 10.4378 47.2434 10.7469C46.9041 11.0559 46.4808 11.3012 45.9802 11.4759C45.4796 11.6506 44.9084 11.738 44.2667 11.738C43.6251 11.738 43.0573 11.6506 42.56 11.4759C42.0628 11.3012 41.6462 11.0559 41.3035 10.7469C40.9642 10.4378 40.7022 10.0716 40.5207 9.65497C40.3393 9.23502 40.2486 8.78482 40.2486 8.29767C40.2486 7.89451 40.3124 7.52831 40.4435 7.19571C40.5711 6.86646 40.7559 6.56409 40.9944 6.29532H39.3684V4.59198H43.1345V4.43743H43.1413ZM53.0153 15.9375V17.6879H44.3205C43.8569 17.6879 43.4537 17.6543 43.1177 17.5871C42.7818 17.5199 42.5097 17.409 42.3047 17.2545C42.0964 17.1 41.9452 16.8917 41.8478 16.6262C41.7504 16.3608 41.7 16.0349 41.7 15.6419V14.0158C41.7 13.8613 41.6731 13.7201 41.6227 13.5958C41.5723 13.4715 41.4883 13.3439 41.3741 13.2095C41.28 13.0953 41.2565 12.9911 41.2968 12.9004C41.3371 12.8063 41.4144 12.7593 41.5286 12.7593H44.1626V15.316C44.1626 15.5545 44.2096 15.7158 44.3037 15.8031C44.3978 15.8905 44.5624 15.9342 44.7976 15.9342H53.0119L53.0153 15.9375ZM44.2735 10.0313C44.811 10.0313 45.2276 9.85319 45.5199 9.49707C45.8155 9.14095 45.9634 8.71427 45.9634 8.21704C45.9634 7.68958 45.8155 7.24946 45.5199 6.89334C45.2243 6.53722 44.811 6.35915 44.2735 6.35915C43.7359 6.35915 43.3059 6.53722 43.017 6.89334C42.728 7.24946 42.5836 7.68958 42.5836 8.21704C42.5836 8.71427 42.728 9.13759 43.017 9.49707C43.3059 9.85319 43.7258 10.0313 44.2735 10.0313ZM50.3948 13.1456V4.87083C50.3948 4.60206 50.3679 4.38704 50.3175 4.22914C50.2671 4.06787 50.1663 3.89989 50.0218 3.72519C49.9177 3.61096 49.8908 3.51017 49.9378 3.42282C49.9849 3.33547 50.0655 3.29179 50.1764 3.29179H52.8271V6.95045H54.5943V8.70083H52.8271V13.149H50.3948V13.1456Z" fill="#0046FF"/>
<path id="Vector_5" d="M69.8001 12.2656V14.016H63.6788V17.8762H61.1692V14.016H55.0311V12.2656H69.8035H69.8001ZM68.0027 3.60107V5.29098H59.2911V6.50045H67.9557V8.19036H59.2911V8.84213C59.2911 9.07059 59.3382 9.22513 59.4322 9.30576C59.5263 9.38975 59.6909 9.43007 59.9261 9.43007H68.2043V11.12H59.355C58.4546 11.12 57.8028 10.9553 57.3929 10.6227C56.9831 10.2935 56.7815 9.72572 56.7815 8.9194V5.20027C56.7815 4.9315 56.7546 4.71648 56.6975 4.5485C56.6404 4.38387 56.5396 4.21925 56.3951 4.05127C56.301 3.93704 56.2742 3.83289 56.3111 3.74218C56.3481 3.64811 56.422 3.60443 56.5362 3.60443H68.0061L68.0027 3.60107Z" fill="#0046FF"/>
<path id="Vector_6" d="M71.0566 5.63031V3.87993H79.6439V5.63031H76.6538V8.2038C76.6538 9.05043 76.8016 9.80636 77.0973 10.4682C77.3929 11.1301 77.8196 11.7382 78.3773 12.2959C78.6763 12.5747 78.9988 12.8435 79.3449 13.1022C79.6909 13.3609 80.0437 13.5927 80.4065 13.801L79.5095 15.1818C79.4557 15.2658 79.3583 15.2927 79.2139 15.2658C79.0694 15.2389 78.8947 15.1684 78.6864 15.0474C78.4781 14.9298 78.2496 14.7686 77.9977 14.567C77.7457 14.3654 77.487 14.1403 77.2317 13.8917C77.0771 13.7472 76.9158 13.5792 76.7512 13.3877C76.5866 13.1962 76.422 12.998 76.2641 12.7897C76.1028 12.5848 75.9584 12.3698 75.8307 12.1548C75.6997 11.9364 75.5989 11.7314 75.5283 11.5366C75.4342 11.765 75.3167 12.0002 75.1722 12.2488C75.0277 12.4974 74.8665 12.7427 74.685 12.9846C74.5036 13.2265 74.3121 13.4617 74.1105 13.6901C73.909 13.9186 73.704 14.1235 73.4991 14.3083C72.9313 14.8358 72.4442 15.2288 72.041 15.4875C71.6378 15.7462 71.3791 15.8033 71.2649 15.6589L70.1797 14.3251C70.5829 14.0664 70.9525 13.801 71.2884 13.5255C71.6244 13.2534 71.9536 12.9543 72.2728 12.6352C72.9246 11.9935 73.3949 11.3216 73.6906 10.6194C73.9862 9.91722 74.1307 9.11427 74.1307 8.21724V5.63031H71.0633H71.0566ZM81.1456 17.8762V4.88783C81.1456 4.61905 81.1188 4.40404 81.0684 4.24613C81.018 4.08487 80.9172 3.91689 80.7727 3.74219C80.6787 3.62796 80.6551 3.52381 80.6955 3.4331C80.7358 3.33903 80.813 3.29199 80.9273 3.29199H83.578V8.19036H85.5938V9.97434H83.578V17.8796H81.1456V17.8762Z" fill="#0046FF"/>
<path id="Vector_7" d="M100.954 9.75577V11.4289H86.1818V9.75577H100.954ZM87.9187 5.20009V3.44971H99.2172V5.20009H94.9404C95.0647 5.43862 95.2831 5.6738 95.5989 5.90561C95.9147 6.13743 96.2977 6.35916 96.7445 6.57082C97.1947 6.78248 97.6986 6.97734 98.2563 7.15204C98.814 7.32674 99.402 7.46785 100.024 7.572L99.4658 8.96625C99.4053 9.11072 99.1467 9.15103 98.6897 9.08384C98.2362 9.01665 97.5575 8.82851 96.6605 8.51942C95.9785 8.28089 95.3805 8.02219 94.8698 7.73662C94.3592 7.45105 93.9056 7.15204 93.5125 6.82952C93.1732 7.1386 92.7902 7.42081 92.3736 7.67279C91.9536 7.92476 91.4497 8.17002 90.8618 8.40855C90.4788 8.5631 90.0958 8.69748 89.7161 8.81171C89.3331 8.92594 88.9871 9.01329 88.678 9.07712C88.3689 9.1376 88.1102 9.16447 87.9019 9.15439C87.697 9.14432 87.5727 9.0872 87.529 8.98305L86.9545 7.64927C87.5727 7.54512 88.1707 7.41074 88.7452 7.24611C89.3197 7.08149 89.8371 6.88999 90.3041 6.67161C90.7677 6.45324 91.1608 6.22142 91.4799 5.97281C91.7991 5.72419 92.0242 5.4655 92.1485 5.19673H87.9153L87.9187 5.20009ZM99.3718 15.0875C99.3718 15.5512 99.2407 15.9778 98.9753 16.3575C98.7099 16.7405 98.3336 17.063 97.8364 17.3251C97.3392 17.5871 96.7344 17.7921 96.0155 17.9365C95.2965 18.081 94.4835 18.1549 93.573 18.1549C92.6625 18.1549 91.8327 18.0843 91.1171 17.9365C90.3981 17.7921 89.7934 17.5871 89.2962 17.3251C88.7989 17.0597 88.4227 16.7371 88.164 16.3575C87.9053 15.9745 87.7776 15.5512 87.7776 15.0875C87.7776 14.6239 87.9053 14.2006 88.164 13.8176C88.4227 13.4346 88.7989 13.1121 89.2962 12.85C89.7934 12.588 90.3981 12.383 91.1171 12.2386C91.8361 12.0941 92.6558 12.0202 93.573 12.0202C94.4902 12.0202 95.2965 12.0941 96.0155 12.2386C96.7344 12.383 97.3392 12.588 97.8364 12.85C98.3336 13.1121 98.7133 13.4379 98.9753 13.8176C99.2374 14.2006 99.3718 14.6239 99.3718 15.0875ZM96.983 15.0875C96.983 14.6239 96.6975 14.2711 96.123 14.0326C95.5485 13.7941 94.6985 13.6765 93.573 13.6765C92.4475 13.6765 91.5975 13.7941 91.023 14.0326C90.4485 14.2711 90.163 14.6205 90.163 15.0875C90.163 15.5545 90.4485 15.9039 91.023 16.1425C91.5975 16.381 92.4475 16.4986 93.573 16.4986C94.6985 16.4986 95.5485 16.381 96.123 16.1425C96.6975 15.9039 96.983 15.5545 96.983 15.0875Z" fill="#0046FF"/>
<path id="Vector_8" d="M108.97 5.75798C108.98 5.5396 108.856 5.43209 108.597 5.43209H102.768V3.75898H109.464C109.877 3.75898 110.213 3.78586 110.472 3.84297C110.731 3.90009 110.926 3.99752 111.06 4.1319C111.194 4.26629 111.278 4.45443 111.309 4.69297C111.339 4.9315 111.339 5.22715 111.309 5.57991L111.077 8.70439H112.377V9.93066C112.148 10.0953 111.846 10.2028 111.463 10.2532C111.08 10.3036 110.627 10.3305 110.099 10.3305H107.714V12.7494H105.359V10.3305H101.545V8.70439H108.785L108.97 5.76134V5.75798ZM103.887 14.7921C103.887 14.6375 103.86 14.4964 103.81 14.3721C103.759 14.2478 103.675 14.1201 103.561 13.9858C103.467 13.8715 103.444 13.7674 103.484 13.6767C103.524 13.5826 103.602 13.5356 103.716 13.5356H106.35V15.5211C106.35 15.6656 106.393 15.7765 106.481 15.8537C106.568 15.931 106.686 15.9713 106.83 15.9713H115.649V17.6915H105.745C105.147 17.6915 104.687 17.5268 104.364 17.2043C104.045 16.8784 103.884 16.4517 103.884 15.9243V14.7921H103.887ZM113.109 13.9253V12.7326H109.515V11.1368H113.109V4.90126C113.109 4.62241 113.082 4.40068 113.025 4.23605C112.968 4.07143 112.867 3.91017 112.723 3.75562C112.629 3.62124 112.605 3.51037 112.652 3.42302C112.699 3.33567 112.78 3.29199 112.894 3.29199H115.498V13.9253H113.109Z" fill="#0046FF"/>
</g>
</g>
<defs>
<clipPath id="clip0_1014_1000">
<rect width="115.649" height="20" fill="white" transform="translate(0 0.5)"/>
</clipPath>
</defs>
</svg>
