<svg width="24" height="25" viewBox="0 0 24 25" fill="none" xmlns="http://www.w3.org/2000/svg">
<g id="Frame 1020101220">
<g id="Group 1413992">
<g id="Group 1413993">
<path id="Vector" d="M8.85 2H15.15C20.4 2 22.5 4.1 22.5 9.35V15.65C22.5 20.9 20.4 23 15.15 23H8.85C3.6 23 1.5 20.9 1.5 15.65V9.35C1.5 4.1 3.6 2 8.85 2Z" fill="url(#paint0_linear_1397_1846)"/>
<path id="Vector_2" d="M8.39844 15.9344L15.2654 9.06738" stroke="#2A3FEC" stroke-width="1.5" stroke-linecap="round" stroke-linejoin="round"/>
<path id="Vector_3" d="M8.82862 10.789C9.5419 10.789 10.1201 10.2108 10.1201 9.49757C10.1201 8.78429 9.5419 8.20605 8.82862 8.20605C8.11535 8.20605 7.53711 8.78429 7.53711 9.49757C7.53711 10.2108 8.11535 10.789 8.82862 10.789Z" stroke="#2A3FEC" stroke-width="1.5" stroke-linecap="round" stroke-linejoin="round"/>
<path id="Vector_4" d="M15.6958 16.7939C16.4091 16.7939 16.9873 16.2157 16.9873 15.5024C16.9873 14.7891 16.4091 14.2109 15.6958 14.2109C14.9825 14.2109 14.4043 14.7891 14.4043 15.5024C14.4043 16.2157 14.9825 16.7939 15.6958 16.7939Z" stroke="#2A3FEC" stroke-width="1.5" stroke-linecap="round" stroke-linejoin="round"/>
</g>
</g>
</g>
<defs>
<linearGradient id="paint0_linear_1397_1846" x1="12" y1="2" x2="12" y2="23" gradientUnits="userSpaceOnUse">
<stop stop-color="#D0DAFC"/>
<stop offset="1" stop-color="#F2F2F4"/>
</linearGradient>
</defs>
</svg>
