<svg width="14" height="12" viewBox="0 0 14 12" fill="none" xmlns="http://www.w3.org/2000/svg">
<g clip-path="url(#clip0_1320_7700)">
<path d="M6.48637 3.04874e-08C5.29977 0.000119648 4.13988 0.352097 3.15331 1.01142C2.16675 1.67075 1.39784 2.60782 0.94383 3.70413C0.489819 4.80044 0.371097 6.00676 0.602665 7.17055C0.834233 8.33434 1.40568 9.40333 2.24477 10.2423C3.08387 11.0814 4.15292 11.6527 5.31673 11.8842C6.48054 12.1156 7.68685 11.9968 8.78312 11.5426C9.87938 11.0885 10.8164 10.3195 11.4756 9.33289C12.1348 8.34626 12.4867 7.1863 12.4867 5.9997C12.4867 5.21175 12.3315 4.43153 12.0299 3.70357C11.7284 2.97562 11.2864 2.31419 10.7292 1.75705C10.172 1.19992 9.51055 0.758002 8.78257 0.456525C8.05458 0.155047 7.27431 -7.93992e-05 6.48637 3.04874e-08ZM6.48637 9.00015C5.89308 9.00003 5.31318 8.82399 4.81993 8.49429C4.32669 8.16459 3.94226 7.69604 3.7153 7.14788C3.48834 6.59971 3.42905 5.99656 3.54487 5.41469C3.66069 4.83281 3.94643 4.29835 4.36599 3.87887C4.78556 3.4594 5.32008 3.17375 5.90197 3.05805C6.48387 2.94235 7.087 3.00179 7.63511 3.22886C8.18323 3.45593 8.65171 3.84043 8.98131 4.33374C9.31091 4.82705 9.48686 5.40701 9.48686 6.0003C9.4871 6.39445 9.40963 6.78478 9.25895 7.14899C9.10826 7.5132 8.88727 7.84414 8.60862 8.1229C8.32997 8.40166 7.99915 8.62278 7.635 8.77361C7.27085 8.92445 6.88052 9.00204 6.48637 9.00196V9.00015Z" fill="white"/>
<path style="mix-blend-mode:multiply" opacity="0.5" d="M9.35378 5.11633C9.57789 5.84488 9.51633 6.63141 9.18158 7.31621C8.84683 8.00101 8.26399 8.53274 7.55143 8.80341C6.83887 9.07409 6.04999 9.06341 5.34501 8.77357C4.64003 8.48373 4.0718 7.93644 3.75569 7.24284C2.81501 7.58798 1.8717 7.92647 0.925781 8.25831C1.50996 9.71771 2.64344 10.8896 4.08253 11.5222C5.52162 12.1548 7.15144 12.1974 8.62166 11.641C10.0919 11.0847 11.2851 9.97364 11.9449 8.54681C12.6046 7.11998 12.6782 5.49126 12.1498 4.01074C11.2184 4.3825 10.2864 4.75103 9.35378 5.11633Z" fill="url(#paint0_linear_1320_7700)"/>
<path d="M10.4642 1.64258C10.4642 1.64258 9.1874 4.79968 9.35856 5.06337C10.501 6.82155 11.1301 9.61577 11.3726 10.8955L13.9992 10.2079C12.9783 3.3058 10.4642 1.64258 10.4642 1.64258Z" fill="white"/>
<path d="M11.1735 0.994141C11.1475 1.13143 11.1172 1.31529 11.084 1.47194C11.9944 2.56477 12.6806 3.82622 13.1034 5.18425C13.4732 4.05363 13.7704 2.90053 13.9931 1.73201L11.1735 0.994141Z" fill="white"/>
</g>
<defs>
<linearGradient id="paint0_linear_1320_7700" x1="6.94386" y1="8.61352" x2="10.7648" y2="3.39727" gradientUnits="userSpaceOnUse">
<stop stop-color="white"/>
<stop offset="0.103" stop-color="#DBECF8"/>
<stop offset="0.266" stop-color="#A9D3EE"/>
<stop offset="0.428" stop-color="#80BDE7"/>
<stop offset="0.585" stop-color="#5FADE0"/>
<stop offset="0.736" stop-color="#48A1DC"/>
<stop offset="0.877" stop-color="#3A9AD9"/>
<stop offset="1" stop-color="#3698D9"/>
</linearGradient>
<clipPath id="clip0_1320_7700">
<rect width="13.5132" height="12" fill="white" transform="translate(0.486328)"/>
</clipPath>
</defs>
</svg>
